<svg width="20" height="20" viewBox="0 0 20 20" fill="none" xmlns="http://www.w3.org/2000/svg">
<path fill-rule="evenodd" clip-rule="evenodd" d="M19 10.0001C19 11.9767 18.3628 13.8044 17.2827 15.2892C16.1775 16.8081 14.6088 17.968 12.7844 18.561C11.9077 18.846 10.9718 19 10 19C9.02824 19 8.09707 18.8468 7.22222 18.5632C5.39728 17.9716 3.82783 16.8129 2.72165 15.295C1.64024 13.8111 1.00164 11.9838 1 10.0075V10.0001C1 8.0261 1.63541 6.20064 2.71302 4.71699C3.81684 3.19696 5.38464 2.03579 7.20845 1.44128C8.08731 1.15487 9.02557 1 10 1C10.9744 1 11.8978 1.1524 12.7706 1.4345C14.5961 2.02459 16.1665 3.18196 17.2739 4.6989C18.3566 6.18204 18.9967 8.00883 18.9999 9.98505C19 9.99008 19 9.99502 19 10.0001Z" fill="url(#paint0_radial_0_2796)"/>
<path d="M12.7706 1.43451L11.8224 4.3681C12.998 4.74804 14.0497 5.51119 14.7838 6.51676L17.2739 4.69891C16.1665 3.18196 14.5961 2.0246 12.7706 1.43451ZM7.20845 1.44129C5.38464 2.0358 3.81684 3.19697 2.71302 4.717L5.20747 6.52858C5.93917 5.52115 6.98904 4.75543 8.16387 4.37252L7.20845 1.44129ZM18.9999 9.98506L15.917 9.99122V10.0001C15.917 11.2598 15.5271 12.4615 14.7895 13.4754L17.2827 15.2892C18.3628 13.8044 19 11.9767 19 10.0001C19 9.99502 19 9.99009 18.9999 9.98506ZM4.083 10.005L1 10.0075C1.00164 11.9838 1.64024 13.8111 2.72165 15.295L5.21323 13.4792C4.47485 12.4661 4.08403 11.2647 4.083 10.005ZM11.8314 15.629C11.2434 15.8201 10.6272 15.917 10 15.917C9.37282 15.917 8.75961 15.8206 8.17291 15.6305L7.22222 18.5632C8.09707 18.8468 9.0307 19 10 19C10.9693 19 11.9077 18.846 12.7844 18.561L11.8314 15.629Z" fill="#025FFA"/>
<path d="M12.7706 1.43451L11.8224 4.3681C12.998 4.74804 14.0497 5.51119 14.7838 6.51676L17.2739 4.69891C16.1665 3.18196 14.5961 2.0246 12.7706 1.43451ZM7.20845 1.44129C5.38464 2.0358 3.81684 3.19697 2.71302 4.717L5.20747 6.52858C5.93917 5.52115 6.98904 4.75543 8.16387 4.37252L7.20845 1.44129ZM18.9999 9.98506L15.917 9.99122V10.0001C15.917 11.2598 15.5271 12.4615 14.7895 13.4754L17.2827 15.2892C18.3628 13.8044 19 11.9767 19 10.0001C19 9.99502 19 9.99009 18.9999 9.98506ZM4.083 10.005L1 10.0075C1.00164 11.9838 1.64024 13.8111 2.72165 15.295L5.21323 13.4792C4.47485 12.4661 4.08403 11.2647 4.083 10.005ZM11.8314 15.629C11.2434 15.8201 10.6272 15.917 10 15.917C9.37282 15.917 8.75961 15.8206 8.17291 15.6305L7.22222 18.5632C8.09707 18.8468 9.0307 19 10 19C10.9693 19 11.9077 18.846 12.7844 18.561L11.8314 15.629Z" fill="url(#paint1_linear_0_2796)"/>
<path d="M8.25129 8.45446C8.22853 8.42366 8.25083 8.3804 8.28946 8.3804H13.6225C13.6517 8.3804 13.6739 8.40628 13.6691 8.43469L13.4487 9.73491C13.4449 9.75737 13.4252 9.77382 13.4021 9.77382H9.25041C9.23532 9.77382 9.22113 9.76671 9.21224 9.75468L8.25129 8.45446Z" fill="#025FFA"/>
<path d="M8.25129 8.45446C8.22853 8.42366 8.25083 8.3804 8.28946 8.3804H13.6225C13.6517 8.3804 13.6739 8.40628 13.6691 8.43469L13.4487 9.73491C13.4449 9.75737 13.4252 9.77382 13.4021 9.77382H9.25041C9.23532 9.77382 9.22113 9.76671 9.21224 9.75468L8.25129 8.45446Z" fill="url(#paint2_linear_0_2796)"/>
<path d="M11.7488 11.5455C11.7715 11.5763 11.7492 11.6196 11.7106 11.6196H6.37757C6.34837 11.6196 6.32616 11.5937 6.33098 11.5653L6.55138 10.2651C6.55519 10.2426 6.57489 10.2262 6.59797 10.2262H10.7496C10.7647 10.2262 10.7789 10.2333 10.7878 10.2453L11.7488 11.5455Z" fill="#025FFA"/>
<path d="M11.7488 11.5455C11.7715 11.5763 11.7492 11.6196 11.7106 11.6196H6.37757C6.34837 11.6196 6.32616 11.5937 6.33098 11.5653L6.55138 10.2651C6.55519 10.2426 6.57489 10.2262 6.59797 10.2262H10.7496C10.7647 10.2262 10.7789 10.2333 10.7878 10.2453L11.7488 11.5455Z" fill="url(#paint3_linear_0_2796)"/>
<defs>
<radialGradient id="paint0_radial_0_2796" cx="0" cy="0" r="1" gradientUnits="userSpaceOnUse" gradientTransform="translate(1.87943 -2.672) rotate(55.2766) scale(42.868 58.6954)">
<stop offset="0.124131" stop-color="#253743"/>
<stop offset="0.657125" stop-color="#030C18"/>
</radialGradient>
<linearGradient id="paint1_linear_0_2796" x1="3.16514" y1="4.10629" x2="16.291" y2="16.4471" gradientUnits="userSpaceOnUse">
<stop stop-color="#C9FF6B"/>
<stop offset="1" stop-color="#8CCF18"/>
</linearGradient>
<linearGradient id="paint2_linear_0_2796" x1="7.21315" y1="8.87309" x2="9.10781" y2="12.8119" gradientUnits="userSpaceOnUse">
<stop stop-color="#C9FF6B"/>
<stop offset="1" stop-color="#8CCF18"/>
</linearGradient>
<linearGradient id="paint3_linear_0_2796" x1="7.21315" y1="8.87309" x2="9.10781" y2="12.8119" gradientUnits="userSpaceOnUse">
<stop stop-color="#C9FF6B"/>
<stop offset="1" stop-color="#8CCF18"/>
</linearGradient>
</defs>
</svg>
