<svg width="100" height="100" viewBox="0 0 100 100" fill="none" xmlns="http://www.w3.org/2000/svg">
<mask id="path-1-inside-1_0_2730" fill="white">
<path d="M0 8C0 3.58172 3.58172 0 8 0H92C96.4183 0 100 3.58172 100 8V92C100 96.4183 96.4183 100 92 100H8C3.58172 100 0 96.4183 0 92V8Z"/>
</mask>
<path d="M0 8C0 3.58172 3.58172 0 8 0H92C96.4183 0 100 3.58172 100 8V92C100 96.4183 96.4183 100 92 100H8C3.58172 100 0 96.4183 0 92V8Z" fill="#47FF69"/>
<path d="M0 8C0 2.47715 4.47715 -2 10 -2H90C95.5229 -2 100 2.47715 100 8C100 4.68629 96.4183 2 92 2H8C3.58172 2 0 4.68629 0 8ZM100 100H0H100ZM0 100V0V100ZM100 0V100V0Z" fill="white" fill-opacity="0.35" mask="url(#path-1-inside-1_0_2730)"/>
<path d="M38.0867 39.3274C37.9316 39.1147 38.0835 38.8159 38.3467 38.8159H74.6781C74.877 38.8159 75.0283 38.9946 74.9955 39.1909L73.494 48.1695C73.4681 48.3246 73.3339 48.4382 73.1766 48.4382H44.8932C44.7904 48.4382 44.6938 48.3891 44.6332 48.306L38.0867 39.3274Z" fill="white"/>
<path d="M61.9133 60.6726C62.0684 60.8853 61.9165 61.1841 61.6533 61.1841H25.3219C25.123 61.1841 24.9717 61.0054 25.0045 60.8091L26.506 51.8305C26.5319 51.6754 26.6661 51.5618 26.8234 51.5618H55.1068C55.2096 51.5618 55.3062 51.6109 55.3668 51.694L61.9133 60.6726Z" fill="white"/>
</svg>
