<svg width="100" height="100" viewBox="0 0 100 100" fill="none" xmlns="http://www.w3.org/2000/svg">
<mask id="path-1-inside-1_0_2731" fill="white">
<path d="M0 8C0 3.58172 3.58172 0 8 0H92C96.4183 0 100 3.58172 100 8V92C100 96.4183 96.4183 100 92 100H8C3.58172 100 0 96.4183 0 92V8Z"/>
</mask>
<path d="M0 8C0 3.58172 3.58172 0 8 0H92C96.4183 0 100 3.58172 100 8V92C100 96.4183 96.4183 100 92 100H8C3.58172 100 0 96.4183 0 92V8Z" fill="#FF4242"/>
<path d="M0 8C0 2.47715 4.47715 -2 10 -2H90C95.5229 -2 100 2.47715 100 8C100 4.68629 96.4183 2 92 2H8C3.58172 2 0 4.68629 0 8ZM100 100H0H100ZM0 100V0V100ZM100 0V100V0Z" fill="white" fill-opacity="0.28" mask="url(#path-1-inside-1_0_2731)"/>
<g clip-path="url(#clip0_0_2731)">
<g clip-path="url(#clip1_0_2731)">
<path d="M38.8155 61.2176H61.1846V66.6906H38.8155V61.2176Z" fill="#151619"/>
<path d="M75.1718 47.5542C75.1049 47.5542 75.0387 47.5564 74.9727 47.56C73.916 41.6778 68.7722 37.2145 62.5859 37.2145C55.6349 37.2145 50 42.8495 50 49.8004C50 42.8495 44.3651 37.2146 37.4141 37.2146C31.2278 37.2146 26.084 41.678 25.0273 47.5601C24.9613 47.5565 24.8951 47.5544 24.8283 47.5544C22.852 47.5542 21.25 49.1563 21.25 51.1325C21.25 53.1087 22.852 54.7107 24.8283 54.7107C26.8045 54.7107 28.4065 53.1087 28.4065 51.1325C28.4065 49.2794 26.9978 47.7553 25.1928 47.5727C26.1234 44.8029 28.7386 42.8068 31.8219 42.8068C35.6844 42.8068 38.8156 45.938 38.8156 49.8004V57.8484H61.1847V49.8004C61.1847 45.938 64.3158 42.8068 68.1782 42.8068C71.2614 42.8068 73.8768 44.8029 74.8073 47.5727C73.0024 47.7553 71.5936 49.2794 71.5936 51.1325C71.5936 53.1087 73.1956 54.7107 75.1719 54.7107C77.1481 54.7107 78.7501 53.1087 78.7501 51.1325C78.75 49.1563 77.148 47.5542 75.1718 47.5542Z" fill="#151619"/>
<path d="M50 39.9904C50.4014 39.4776 50.8362 38.9862 51.3039 38.5184C52.235 37.5874 53.261 36.7861 54.3598 36.1225C53.413 34.7267 51.8137 33.8093 50 33.8093C48.1863 33.8093 46.5869 34.7266 45.6402 36.1225C46.739 36.786 47.765 37.5874 48.696 38.5184C49.1638 38.9862 49.5986 39.4776 50 39.9904Z" fill="#151619"/>
</g>
</g>
<defs>
<clipPath id="clip0_0_2731">
<rect width="57.5" height="57.5" fill="white" transform="translate(21.25 21.25)"/>
</clipPath>
<clipPath id="clip1_0_2731">
<rect width="57.5" height="57.5" fill="white" transform="translate(21.25 21.5)"/>
</clipPath>
</defs>
</svg>
